<svg width="43" height="46" viewBox="0 0 43 46" fill="none" xmlns="http://www.w3.org/2000/svg">
<path d="M30.2048 45.064C22.0554 45.064 15.7408 44.616 11.2608 43.72C10.1088 22.344 9.06342 9.416 8.12475 4.936L6.20475 5.384C5.18075 5.59733 4.19942 5.832 3.26075 6.088C2.32208 6.30133 1.31942 6.62133 0.25275 7.048L0.18875 4.872C0.18875 4.14666 0.978083 3.48533 2.55675 2.888C4.13542 2.248 6.03408 1.75733 8.25275 1.416C10.5141 1.032 12.5194 0.839996 14.2688 0.839996C16.1888 0.839996 18.3861 1.18133 20.8608 1.864C23.3781 2.54666 25.5328 3.57066 27.3248 4.936C29.1168 6.25866 30.0128 7.83733 30.0128 9.672C30.0128 11.7627 29.2021 13.6187 27.5808 15.24C26.0021 16.8187 23.9328 17.9493 21.3728 18.632C25.1274 19.272 28.6261 20.424 31.8688 22.088C35.1114 23.7093 37.7141 25.736 39.6768 28.168C41.6394 30.5573 42.6208 33.1387 42.6208 35.912C42.6208 39.112 41.3834 41.4373 38.9088 42.888C36.4341 44.3387 33.5328 45.064 30.2048 45.064ZM28.5408 41.416C31.6981 41.416 34.1301 41.0747 35.8368 40.392C37.5434 39.6667 38.3968 38.1307 38.3968 35.784C38.3968 33.3093 37.6501 31.24 36.1568 29.576C34.7061 27.8693 32.9781 26.5467 30.9728 25.608C29.0101 24.6267 26.5568 23.6027 23.6128 22.536C21.2661 21.7253 19.5168 21.0213 18.3647 20.424C17.2554 19.784 16.7008 19.08 16.7008 18.312C16.7008 17.7573 16.9781 17.3307 17.5328 17.032C18.0874 16.7333 19.0688 16.3067 20.4768 15.752C22.3968 15.112 23.8901 14.4293 24.9568 13.704C26.0661 12.936 26.6208 11.8693 26.6208 10.504C26.6208 8.49866 25.4048 6.96267 22.9728 5.896C20.5408 4.78667 17.8101 4.232 14.7808 4.232C13.9274 4.232 12.9034 4.31733 11.7088 4.488C12.8181 11.656 13.5861 17.6933 14.0128 22.6C14.4394 27.464 14.7381 33.1173 14.9088 39.56C15.5061 40.1573 17.0208 40.6053 19.4528 40.904C21.8848 41.2027 24.9141 41.3733 28.5408 41.416Z" fill="#68187B"/>
<path d="M11.2608 43.72L10.2622 43.7738L10.3039 44.5484L11.0646 44.7006L11.2608 43.72ZM8.12475 4.936L9.1035 4.73093L8.89372 3.72971L7.89752 3.96216L8.12475 4.936ZM6.20475 5.384L6.4087 6.36298L6.42037 6.36055L6.43198 6.35784L6.20475 5.384ZM3.26075 6.088L3.48237 7.06313L3.50323 7.05839L3.52387 7.05276L3.26075 6.088ZM0.25275 7.048L-0.746818 7.0774L-0.70474 8.50803L0.62414 7.97647L0.25275 7.048ZM0.18875 4.872H-0.81125V4.8867L-0.810818 4.9014L0.18875 4.872ZM2.55675 2.888L2.91064 3.82328L2.9216 3.81914L2.93245 3.81474L2.55675 2.888ZM8.25275 1.416L8.40481 2.40437L8.4125 2.40319L8.42017 2.40188L8.25275 1.416ZM20.8608 1.864L20.5948 2.828L20.599 2.82914L20.8608 1.864ZM27.3248 4.936L26.7187 5.73143L26.7248 5.73605L26.7309 5.74057L27.3248 4.936ZM21.3728 18.632L21.1151 17.6658L21.2047 19.6178L21.3728 18.632ZM31.8688 22.088L31.4122 22.9777L31.4215 22.9824L31.8688 22.088ZM39.6768 28.168L38.8985 28.796L38.904 28.8027L39.6768 28.168ZM38.9088 42.888L39.4145 43.7507L39.4145 43.7507L38.9088 42.888ZM28.5408 41.416L28.529 42.416H28.5408V41.416ZM35.8368 40.392L36.2081 41.3205L36.2181 41.3165L36.2279 41.3123L35.8368 40.392ZM36.1568 29.576L35.3948 30.2236L35.4035 30.2339L35.4125 30.2439L36.1568 29.576ZM30.9728 25.608L30.5255 26.5024L30.5371 26.5082L30.5488 26.5137L30.9728 25.608ZM23.6128 22.536L23.9534 21.5958L23.9464 21.5933L23.9393 21.5908L23.6128 22.536ZM18.3647 20.424L17.865 21.2902L17.8845 21.3014L17.9044 21.3118L18.3647 20.424ZM17.5328 17.032L18.0069 17.9125L18.0069 17.9125L17.5328 17.032ZM20.4768 15.752L20.1605 14.8033L20.1351 14.8118L20.1102 14.8216L20.4768 15.752ZM24.9568 13.704L25.5191 14.531L25.526 14.5262L24.9568 13.704ZM22.9728 5.896L22.5577 6.80582L22.5644 6.80885L22.5711 6.81179L22.9728 5.896ZM11.7088 4.488L11.5673 3.49805L10.5658 3.64113L10.7205 4.64094L11.7088 4.488ZM14.0128 22.6L13.0165 22.6866L13.0166 22.6874L14.0128 22.6ZM14.9088 39.56L13.9091 39.5865L13.9197 39.9851L14.2016 40.2671L14.9088 39.56ZM30.2048 44.064C22.0787 44.064 15.8408 43.6162 11.4569 42.7394L11.0646 44.7006C15.6407 45.6158 22.0322 46.064 30.2048 46.064V44.064ZM12.2593 43.6662C11.1093 22.3268 10.0618 9.30457 9.1035 4.73093L7.146 5.14107C8.06505 9.52742 9.10823 22.3612 10.2622 43.7738L12.2593 43.6662ZM7.89752 3.96216L5.97752 4.41016L6.43198 6.35784L8.35198 5.90984L7.89752 3.96216ZM6.0008 4.40502C4.9584 4.62218 3.95726 4.86152 2.99763 5.12323L3.52387 7.05276C4.44157 6.80248 5.4031 6.57248 6.4087 6.36298L6.0008 4.40502ZM3.03913 5.11286C2.04074 5.33977 0.987654 5.677 -0.11864 6.11952L0.62414 7.97647C1.65118 7.56566 2.60342 7.26289 3.48237 7.06313L3.03913 5.11286ZM1.25232 7.0186L1.18832 4.8426L-0.810818 4.9014L-0.746818 7.0774L1.25232 7.0186ZM1.18875 4.872C1.18875 4.91364 1.15618 4.82204 1.42297 4.59852C1.69432 4.37117 2.16807 4.10425 2.91064 3.82328L2.20286 1.95271C1.36676 2.26907 0.656514 2.63149 0.13853 3.06548C-0.384016 3.50329 -0.81125 4.10502 -0.81125 4.872H1.18875ZM2.93245 3.81474C4.42067 3.21141 6.24013 2.7374 8.40481 2.40437L8.10069 0.427625C5.82803 0.777265 3.85017 1.28459 2.18105 1.96126L2.93245 3.81474ZM8.42017 2.40188C10.6422 2.02456 12.5897 1.84 14.2688 1.84V-0.160004C12.4492 -0.160004 10.386 0.0394313 8.08534 0.43011L8.42017 2.40188ZM14.2688 1.84C16.0745 1.84 18.1796 2.16173 20.5948 2.82799L21.1267 0.900006C18.5925 0.200931 16.303 -0.160004 14.2688 -0.160004V1.84ZM20.599 2.82914C23.0111 3.48327 25.0443 4.45571 26.7187 5.73143L27.9308 4.14057C26.0212 2.68562 23.745 1.61006 21.1225 0.898858L20.599 2.82914ZM26.7309 5.74057C28.3289 6.92003 29.0128 8.22406 29.0128 9.672H31.0128C31.0128 7.45061 29.9046 5.5973 27.9186 4.13142L26.7309 5.74057ZM29.0128 9.672C29.0128 11.4705 28.3274 13.0791 26.8736 14.5329L28.2879 15.9471C30.0768 14.1582 31.0128 12.0548 31.0128 9.672H29.0128ZM26.8736 14.5329C25.4408 15.9657 23.537 17.0199 21.1151 17.6658L21.6304 19.5982C24.3285 18.8787 26.5634 17.6716 28.2879 15.9471L26.8736 14.5329ZM21.2047 19.6178C24.8634 20.2414 28.2643 21.3623 31.4122 22.9777L32.3253 21.1983C28.9879 19.4857 25.3914 18.3026 21.5408 17.6462L21.2047 19.6178ZM31.4215 22.9824C34.5565 24.5499 37.0391 26.492 38.8986 28.796L40.4549 27.54C38.389 24.98 35.6664 22.8688 32.316 21.1936L31.4215 22.9824ZM38.904 28.8027C40.7377 31.035 41.6208 33.397 41.6208 35.912H43.6208C43.6208 32.8804 42.5411 30.0796 40.4495 27.5333L38.904 28.8027ZM41.6208 35.912C41.6208 38.8065 40.5312 40.7778 38.403 42.0253L39.4145 43.7507C42.2356 42.0969 43.6208 39.4175 43.6208 35.912H41.6208ZM38.403 42.0253C36.1048 43.3725 33.3838 44.064 30.2048 44.064V46.064C33.6817 46.064 36.7633 45.3048 39.4145 43.7507L38.403 42.0253ZM28.5408 42.416C31.7472 42.416 34.3278 42.0726 36.2081 41.3205L35.4654 39.4635C33.9324 40.0767 31.6489 40.416 28.5408 40.416V42.416ZM36.2279 41.3123C37.274 40.8678 38.0899 40.1555 38.6309 39.1816C39.1632 38.2235 39.3968 37.0724 39.3968 35.784H37.3968C37.3968 36.8423 37.2036 37.6325 36.8826 38.2104C36.5703 38.7725 36.1062 39.1909 35.4456 39.4717L36.2279 41.3123ZM39.3968 35.784C39.3968 33.0912 38.577 30.7757 36.901 28.9081L35.4125 30.2439C36.7231 31.7043 37.3968 33.5275 37.3968 35.784H39.3968ZM36.9187 28.9284C35.3763 27.1137 33.5334 25.7025 31.3967 24.7023L30.5488 26.5137C32.4227 27.3908 34.0359 28.6249 35.3948 30.2236L36.9187 28.9284ZM31.42 24.7136C29.4116 23.7094 26.9198 22.6706 23.9534 21.5958L23.2721 23.4762C26.1937 24.5347 28.6086 25.544 30.5255 26.5024L31.42 24.7136ZM23.9393 21.5908C21.6051 20.7845 19.911 20.0993 18.8251 19.5362L17.9044 21.3118C19.1225 21.9433 20.9271 22.6662 23.2862 23.4812L23.9393 21.5908ZM18.8645 19.5578C17.8502 18.9726 17.7008 18.5298 17.7008 18.312H15.7008C15.7008 19.6302 16.6607 20.5954 17.865 21.2902L18.8645 19.5578ZM17.7008 18.312C17.7008 18.1823 17.7226 18.0655 18.0069 17.9125L17.0587 16.1515C16.2336 16.5958 15.7008 17.3324 15.7008 18.312H17.7008ZM18.0069 17.9125C18.5038 17.6449 19.4354 17.237 20.8433 16.6824L20.1102 14.8216C18.7021 15.3763 17.671 15.8218 17.0586 16.1515L18.0069 17.9125ZM20.793 16.7007C22.7567 16.0461 24.346 15.3286 25.5191 14.5309L24.3944 12.8771C23.4342 13.53 22.0368 14.1779 20.1605 14.8033L20.793 16.7007ZM25.526 14.5262C26.9089 13.5688 27.6208 12.1928 27.6208 10.504H25.6208C25.6208 11.5459 25.2232 12.3032 24.3875 12.8818L25.526 14.5262ZM27.6208 10.504C27.6208 9.28177 27.2442 8.17643 26.4928 7.2273C25.7538 6.29378 24.6893 5.5569 23.3744 4.98021L22.5711 6.81179C23.6882 7.30176 24.4477 7.86622 24.9247 8.4687C25.3893 9.05557 25.6208 9.72089 25.6208 10.504H27.6208ZM23.3878 4.98618C20.8091 3.80997 17.9342 3.232 14.7808 3.232V5.232C17.686 5.232 20.2724 5.76336 22.5577 6.80582L23.3878 4.98618ZM14.7808 3.232C13.8652 3.232 12.7913 3.32319 11.5673 3.49805L11.8502 5.47795C13.0155 5.31147 13.9896 5.232 14.7808 5.232V3.232ZM10.7205 4.64094C11.8279 11.7962 12.5924 17.8098 13.0165 22.6866L15.009 22.5134C14.5797 17.5768 13.8083 11.5158 12.697 4.33506L10.7205 4.64094ZM13.0166 22.6874C13.441 27.5259 13.7388 33.1581 13.9091 39.5865L15.9084 39.5335C15.7374 33.0765 15.4378 27.4021 15.0089 22.5126L13.0166 22.6874ZM14.2016 40.2671C14.6817 40.7471 15.4085 41.0661 16.2091 41.3029C17.0398 41.5486 18.0865 41.7437 19.3309 41.8965L19.5746 39.9115C18.387 39.7656 17.4603 39.5874 16.7764 39.3851C16.0623 39.1739 15.7332 38.9702 15.6159 38.8529L14.2016 40.2671ZM19.3309 41.8965C21.8122 42.2013 24.8812 42.373 28.529 42.4159L28.5525 40.4161C24.947 40.3737 21.9573 40.2041 19.5746 39.9115L19.3309 41.8965Z" fill="#00BBE0"/>
</svg>
